<svg width="27" height="27" viewBox="0 0 27 27" fill="none" xmlns="http://www.w3.org/2000/svg">
<path d="M13.4248 1C13.0079 1 12.7021 1.33332 12.7021 1.7222V5.77762C12.7021 6.19427 13.0357 6.49982 13.4248 6.49982C13.8418 6.49982 14.1753 6.1665 14.1753 5.77762V1.7222C14.1753 1.33332 13.8418 1 13.4248 1ZM4.75247 3.9999C4.55789 3.9999 4.36332 4.08323 4.22434 4.22212C3.94638 4.49988 3.94638 4.97209 4.22434 5.24986L7.08734 8.11088C7.3653 8.38865 7.83783 8.38865 8.11579 8.11088C8.39375 7.83311 8.39375 7.3609 8.11579 7.08313L5.2528 4.22212C5.11382 4.08323 4.91924 3.9999 4.72467 3.9999H4.75247ZM10.3395 9.58305C9.92253 9.58305 9.58898 9.8886 9.58898 10.3052C9.58898 10.3886 9.58898 10.4441 9.58898 10.5275L13.7306 25.4714C13.8418 25.8603 14.2309 26.0825 14.6479 25.9714C14.8424 25.9158 14.9814 25.8047 15.0926 25.6381L17.5109 21.4993L20.8742 24.8603C21.1521 25.1381 21.6247 25.1381 21.9026 24.8603L24.849 21.916C25.127 21.6382 25.127 21.166 24.849 20.8882L21.4579 17.4995L25.6273 15.1106C25.9886 14.9162 26.0998 14.4718 25.9053 14.1107C25.8219 13.944 25.6551 13.8329 25.4605 13.7774L10.5062 9.6386C10.5062 9.6386 10.3951 9.6386 10.3395 9.6386V9.58305ZM11.3679 11.3608L23.3758 14.6662L19.9013 16.6662C19.54 16.8606 19.4288 17.305 19.6234 17.6661C19.6511 17.7217 19.7067 17.7772 19.7345 17.8328L23.2924 21.3882L21.3745 23.3048L17.8722 19.8049C17.5942 19.5272 17.1217 19.5272 16.8437 19.8049C16.7882 19.8605 16.7604 19.8883 16.7326 19.9438L14.7035 23.3882L11.3679 11.3608ZM1.75049 12.6941C1.33355 12.6941 1 13.0274 1 13.4163C1 13.8329 1.33355 14.1385 1.75049 14.1385H5.80872C6.22566 14.1385 6.53141 13.8051 6.53141 13.4163C6.53141 12.9996 6.19786 12.6663 5.80872 12.6663H1.75049V12.6941Z" fill="#1B9AFF" stroke="#1B9AFF" stroke-width="0.25"/>
</svg>
