<svg width="27" height="27" viewBox="0 0 27 27" fill="none" xmlns="http://www.w3.org/2000/svg">
<path d="M10.84 1H2.82667C1.82 1 1 1.82 1 2.82667V10.84C1 11.8467 1.82 12.6667 2.82667 12.6667H10.84C11.8467 12.6667 12.6667 11.8467 12.6667 10.84V2.82667C12.6667 1.82 11.8467 1 10.84 1ZM11.6667 10.84C11.6667 11.2967 11.2967 11.6667 10.84 11.6667H2.82667C2.37 11.6667 2 11.2967 2 10.84V2.82667C2 2.37 2.37 2 2.82667 2H10.84C11.2967 2 11.6667 2.37 11.6667 2.82667V10.84ZM24.1733 1H16.16C15.1533 1 14.3333 1.82 14.3333 2.82667V10.84C14.3333 11.8467 15.1533 12.6667 16.16 12.6667H24.1733C25.18 12.6667 26 11.8467 26 10.84V2.82667C26 1.82 25.18 1 24.1733 1ZM25 10.84C25 11.2967 24.63 11.6667 24.1733 11.6667H16.16C15.7033 11.6667 15.3333 11.2967 15.3333 10.84V2.82667C15.3333 2.37 15.7033 2 16.16 2H24.1733C24.63 2 25 2.37 25 2.82667V10.84ZM10.84 14.3333H2.82667C1.82 14.3333 1 15.1533 1 16.16V24.1733C1 25.18 1.82 26 2.82667 26H10.84C11.8467 26 12.6667 25.18 12.6667 24.1733V16.16C12.6667 15.1533 11.8467 14.3333 10.84 14.3333ZM11.6667 24.1733C11.6667 24.63 11.2967 25 10.84 25H2.82667C2.37 25 2 24.63 2 24.1733V16.16C2 15.7033 2.37 15.3333 2.82667 15.3333H10.84C11.2967 15.3333 11.6667 15.7033 11.6667 16.16V24.1733ZM24.1733 14.3333H16.16C15.1533 14.3333 14.3333 15.1533 14.3333 16.16V24.1733C14.3333 25.18 15.1533 26 16.16 26H24.1733C25.18 26 26 25.18 26 24.1733V16.16C26 15.1533 25.18 14.3333 24.1733 14.3333ZM25 24.1733C25 24.63 24.63 25 24.1733 25H16.16C15.7033 25 15.3333 24.63 15.3333 24.1733V16.16C15.3333 15.7033 15.7033 15.3333 16.16 15.3333H24.1733C24.63 15.3333 25 15.7033 25 16.16V24.1733ZM9.33333 6.83333C9.33333 7.11 9.11 7.33333 8.83333 7.33333H7.33333V8.83333C7.33333 9.11 7.11 9.33333 6.83333 9.33333C6.55667 9.33333 6.33333 9.11 6.33333 8.83333V7.33333H4.83333C4.55667 7.33333 4.33333 7.11 4.33333 6.83333C4.33333 6.55667 4.55667 6.33333 4.83333 6.33333H6.33333V4.83333C6.33333 4.55667 6.55667 4.33333 6.83333 4.33333C7.11 4.33333 7.33333 4.55667 7.33333 4.83333V6.33333H8.83333C9.11 6.33333 9.33333 6.55667 9.33333 6.83333ZM22.6667 6.83333C22.6667 7.11 22.4433 7.33333 22.1667 7.33333H18.1667C17.89 7.33333 17.6667 7.11 17.6667 6.83333C17.6667 6.55667 17.89 6.33333 18.1667 6.33333H22.1667C22.4433 6.33333 22.6667 6.55667 22.6667 6.83333ZM22.6667 20.1667C22.6667 20.4433 22.4433 20.6667 22.1667 20.6667H18.1667C17.89 20.6667 17.6667 20.4433 17.6667 20.1667C17.6667 19.89 17.89 19.6667 18.1667 19.6667H22.1667C22.4433 19.6667 22.6667 19.89 22.6667 20.1667ZM8.6 21.2267C8.79667 21.4233 8.79667 21.74 8.6 21.9333C8.50333 22.03 8.37333 22.08 8.24667 22.08C8.12 22.08 7.99 22.03 7.89333 21.9333L6.83333 20.8733L5.77333 21.9333C5.67667 22.03 5.54667 22.08 5.42 22.08C5.29333 22.08 5.16333 22.03 5.06667 21.9333C4.87 21.7367 4.87 21.42 5.06667 21.2267L6.12667 20.1667L5.06667 19.1067C4.87 18.91 4.87 18.5933 5.06667 18.4C5.26333 18.2033 5.58 18.2033 5.77333 18.4L6.83333 19.46L7.89333 18.4C8.09 18.2033 8.40667 18.2033 8.6 18.4C8.79667 18.5967 8.79667 18.9133 8.6 19.1067L7.54 20.1667L8.6 21.2267ZM19.6667 18.1733C19.6667 17.8967 19.8967 17.6667 20.1733 17.6667C20.45 17.6667 20.68 17.8967 20.68 18.1733C20.68 18.45 20.45 18.68 20.1733 18.68C19.8967 18.68 19.6667 18.4467 19.6667 18.1733ZM20.6767 22.1733C20.6767 22.45 20.4467 22.68 20.17 22.68C19.8933 22.68 19.6633 22.45 19.6633 22.1733C19.6633 21.8967 19.8933 21.6667 20.17 21.6667C20.4467 21.6667 20.6767 21.8967 20.6767 22.1733Z" fill="#3DD179" stroke="#3DD179" stroke-width="0.25"/>
</svg>
