<svg width="25" height="25" viewBox="0 0 25 25" fill="none" xmlns="http://www.w3.org/2000/svg">
<path d="M7.0375 2.5875C6.775 1.95 7.075 1.2125 7.7125 0.95C8.35 0.6875 9.0875 0.9875 9.35 1.625C9.6125 2.2625 9.3125 2.9875 8.675 3.25C8.525 3.3125 8.35 3.3375 8.1875 3.3375C7.6875 3.3375 7.2375 3.0375 7.0375 2.575V2.5875ZM4.5375 5.8C4.8625 5.8 5.1875 5.6625 5.4125 5.425C5.9 4.9375 5.9 4.15 5.4125 3.6625C4.925 3.175 4.1375 3.175 3.65 3.6625C3.1625 4.15 3.1625 4.9375 3.65 5.425C3.8875 5.6625 4.2125 5.8 4.55 5.8H4.5375ZM1.625 9.35C1.775 9.4125 1.9375 9.4375 2.1 9.4375C2.6 9.4375 3.0625 9.1375 3.2625 8.675C3.525 8.0375 3.225 7.3 2.5875 7.0375C1.95 6.775 1.2125 7.075 0.95 7.7125C0.6875 8.35 0.9875 9.075 1.625 9.3375V9.35ZM12.5 0H12.375C12.375 0 12.2875 0 12.25 0H11.975L11.8 0.0875L11.6125 0.2375C11.55 0.3 11.5125 0.375 11.475 0.4625C11.3 0.6875 11.225 0.9625 11.25 1.25C11.25 1.4875 11.3375 1.725 11.475 1.925C11.5125 2 11.55 2.075 11.6125 2.1375L11.8 2.2875L11.9625 2.375H12.25L12.5 2.5C18.025 2.5 22.5 6.975 22.5 12.5C22.5 18.025 18.025 22.5 12.5 22.5C6.975 22.5 2.5 18.025 2.5 12.5C2.5 12.2375 2.4 11.9875 2.2375 11.775L2.1375 11.6125C2.1375 11.6125 2.05 11.55 2 11.525C1.7875 11.35 1.525 11.2625 1.25 11.25C0.9875 11.25 0.7375 11.35 0.5375 11.5C0.475 11.5375 0.4125 11.575 0.3625 11.6125L0.2625 11.775C0.1875 11.8625 0.1375 11.95 0.0875 12.05C0.025 12.1875 0 12.35 0 12.5C0 19.4125 5.6 25 12.5 25C19.4 25 25 19.4 25 12.5C25 5.6 19.4 0 12.5 0ZM11.3375 12.925C11.3625 13.0125 11.4125 13.0875 11.4625 13.15C11.475 13.2 11.5 13.25 11.5375 13.3L14.7625 17.1375C15 17.4125 15.35 17.575 15.7125 17.575C16 17.575 16.2875 17.475 16.5125 17.2875C17.05 16.85 17.1125 16.0625 16.675 15.525L13.75 12.05V6.25C13.75 5.5625 13.1875 5 12.5 5C11.8125 5 11.25 5.5625 11.25 6.25V12.5C11.25 12.5 11.25 12.6125 11.25 12.675C11.2625 12.7625 11.3 12.85 11.3375 12.925Z" fill="#D250E7"/>
</svg>
