<svg width="113" height="112" viewBox="0 0 113 112" fill="none" xmlns="http://www.w3.org/2000/svg">
<g id="Layer_1" clip-path="url(#clip0_3_402)">
<path id="Vector" d="M75.1713 91.5238L74.7147 91.0712L74.3885 91.6251L63.5463 110.034C63.108 110.681 62.5812 111.092 61.8419 111.303C60.2235 111.728 58.7598 110.878 58.3395 109.423C58.3392 109.422 58.339 109.422 58.3388 109.421L39.7762 42.9729V42.9726V42.9708V42.9688V42.9667V42.9646V42.9625V42.9604V42.9584V42.9563V42.9542V42.9522V42.9501V42.948V42.946V42.9439V42.9419V42.9398V42.9378V42.9357V42.9337V42.9316V42.9296V42.9276V42.9255V42.9235V42.9215V42.9194V42.9174V42.9154V42.9134V42.9113V42.9093V42.9073V42.9053V42.9033V42.9013V42.8993V42.8973V42.8953V42.8933V42.8913V42.8893V42.8873V42.8853V42.8833V42.8813V42.8793V42.8773V42.8753V42.8733V42.8714V42.8694V42.8674V42.8654V42.8635V42.8615V42.8595V42.8576V42.8556V42.8536V42.8517V42.8497V42.8478V42.8458V42.8439V42.8419V42.84V42.838V42.8361V42.8341V42.8322V42.8302V42.8283V42.8264V42.8244V42.8225V42.8205V42.8186V42.8167V42.8148V42.8128V42.8109V42.809V42.8071V42.8051V42.8032V42.8013V42.7994V42.7975V42.7956V42.7937V42.7917V42.7898V42.7879V42.786V42.7841V42.7822V42.7803V42.7784V42.7765V42.7746V42.7727V42.7708V42.7689V42.767V42.7652V42.7633V42.7614V42.7595V42.7576V42.7557V42.7538V42.752V42.7501V42.7482V42.7463V42.7444V42.7426V42.7407V42.7388V42.737V42.7351V42.7332V42.7313V42.7295V42.7276V42.7257V42.7239V42.722V42.7202V42.7183V42.7164V42.7146V42.7127V42.7109V42.709V42.7072V42.7053V42.7035V42.7016V42.6998V42.6979V42.6961V42.6942V42.6924V42.6905V42.6887V42.6868V42.685V42.6831V42.6813V42.6795V42.6776V42.6758V42.6739V42.6721V42.6703V42.6684V42.6666V42.6648V42.6629V42.6611V42.6593V42.6574V42.6556V42.6538V42.6519V42.6501V42.6483V42.6464V42.6446V42.6428V42.641V42.6391V42.6373V42.6355V42.6337V42.6318V42.63V42.6282V42.6264V42.6245V42.6227V42.6209V42.6191V42.6173V42.6155V42.6136V42.6118V42.61V42.6082V42.6064V42.6045V42.6027V42.6009V42.5991V42.5973V42.5955V42.5936V42.5918V42.59V42.5882V42.5864V42.5846V42.5828V42.581V42.5791V42.5773V42.5755V42.5737V42.5719V42.5701V42.5683V42.5665V42.5646V42.5628V42.561V42.5592V42.5574V42.5556V42.5538V42.552V42.5501V42.5483V42.5465V42.5447V42.5429V42.5411V42.5393V42.5375V42.5357V42.5338V42.532V42.5302V42.5284V42.5266V42.5248V42.523V42.5212V42.5194V42.5175V42.5157V42.5139V42.5121V42.5103V42.5085V42.5067V42.5048V42.503V42.5012V42.4994V42.4976V42.4958V42.494V42.4921V42.4903V42.4885V42.4867V42.4849V42.4831V42.4812V42.4794V42.4776V42.4758V42.474V42.4721V42.4703V42.4685V42.4667V42.4649V42.463V42.4612V42.4594V42.4576V42.4557V42.4539V42.4521V42.4503V42.4484V42.4466V42.4448V42.443V42.4411V42.4393V42.4375V42.4356V42.4338V42.432V42.4301V42.4283V42.4265V42.4246V42.4228V42.421V42.4191V42.4173V42.4154V42.4136V42.4118V42.4099V42.4081V42.4062V42.4044V42.4025V42.4007V42.3988V42.397V42.3951V42.3933V42.3914V42.3896V42.3877V42.3859V42.384V42.3822V42.3803V42.3785V42.3766V42.3747V42.3729V42.371V42.3692V42.3673V42.3654V42.3636V42.3617V42.3598V42.358V42.3561V42.3542V42.3524V42.3505V42.3486V42.3467V42.3448V42.343V42.3411V42.3392V42.3373V42.3354V42.3336V42.3317V42.3298V42.3279V42.326V42.3241V42.3222V42.3203V42.3184V42.3165V42.3146V42.3127V42.3108V42.3089V42.307V42.3051V42.3032V42.3013V42.2994V42.2975V42.2956V42.2937V42.2917V42.2898V42.2879V42.286V42.2841V42.2821V42.2802V42.2783V42.2764V42.2744V42.2725V42.2706V42.2686V42.2667V42.2648V42.2628V42.2609V42.2589V42.257V42.255V42.2531V42.2511V42.2492V42.2472V42.2453V42.2433V42.2414V42.2394V42.2374V42.2355V42.2335V42.2316V42.2296V42.2276V42.2256V42.2237V42.2217V42.2197V42.2177V42.2157V42.2138V42.2118V42.2098V42.2078V42.2058V42.2038V42.2018V42.1998V42.1978V42.1958V42.1938V42.1918V42.1898V42.1878V42.1857V42.1837V42.1817V42.1797V42.1777V42.1756V42.1736V42.1716V42.1696V42.1675V42.1655V42.1635V42.1614V42.1594V42.1573V42.1553V42.1532V42.1512V42.1491V42.1471V42.145V42.1429V42.1409V42.1388V42.1368V42.1347V42.1326V42.1305V42.1285V42.1264V42.1243V42.1222V42.1201V42.118V42.1159V42.1138V42.1117V42.1096V42.1075V42.1054V42.1033V42.1012V42.0991V42.097V42.0949V42.0928V42.0906V42.0885V42.0864V42.0843V42.0821V42.08V42.0778V42.0757V42.0736V42.0714V42.0693V42.0671V42.065V42.0628V42.0606V42.0585V42.0563V42.0541V42.052C39.7762 40.6654 40.7712 39.5872 42.1434 39.3753V39.5846H42.6434H42.6449H42.6464H42.6478H42.6493H42.6508H42.6523H42.6538H42.6553H42.6568H42.6583H42.6599H42.6614H42.6629H42.6644H42.666H42.6675H42.6691H42.6706H42.6722H42.6738H42.6753H42.6769H42.6785H42.6801H42.6817H42.6833H42.6849H42.6865H42.6881H42.6897H42.6913H42.6929H42.6946H42.6962H42.6978H42.6995H42.7011H42.7028H42.7044H42.7061H42.7078H42.7094H42.7111H42.7128H42.7145H42.7162H42.7179H42.7195H42.7212H42.7229H42.7247H42.7264H42.7281H42.7298H42.7315H42.7332H42.735H42.7367H42.7385H42.7402H42.7419H42.7437H42.7454H42.7472H42.749H42.7507H42.7525H42.7543H42.756H42.7578H42.7596H42.7614H42.7632H42.765H42.7668H42.7685H42.7703H42.7722H42.774H42.7758H42.7776H42.7794H42.7812H42.783H42.7849H42.7867H42.7885H42.7904H42.7922H42.794H42.7959H42.7977H42.7996H42.8014H42.8033H42.8051H42.807H42.8088H42.8107H42.8126H42.8144H42.8163H42.8182H42.82H42.8219H42.8238H42.8257H42.8275H42.8294H42.8313H42.8332H42.8351H42.837H42.8389H42.8408H42.8427H42.8446H42.8465H42.8484H42.8503H42.8522H42.8541H42.856H42.8579H42.8598H42.8617H42.8637H42.8656H42.8675H42.8694H42.8713H42.8733H42.8752H42.8771H42.879H42.881H42.8829H42.8848H42.8868H42.8887H42.8906H42.8926H42.8945H42.8964H42.8984H42.9003H42.9022H42.9042H42.9061H42.9081H42.91H42.9119H42.9139H42.9158H42.9178H42.9197H42.9217H42.9236H42.9256H42.9275H42.9295H42.9314H42.9334H42.9353H42.9372H42.9392H42.9411H42.9431H42.945H42.947H42.9489H42.9509H42.9528H42.9548H42.9567H42.9587H42.9606H42.9626H42.9645H42.9665H42.9684H42.9704H42.9723H42.9743H42.9762H42.9781H42.9801H42.982H42.984H42.9859H42.9879H42.9898H42.9917H42.9937H42.9956H42.9976H42.9995H43.0014H43.0034H43.0053H43.0072H43.0092H43.0111H43.013H43.015H43.0169H43.0188H43.0207H43.0227H43.0246H43.0265H43.0284H43.0304H43.0323H43.0342H43.0361H43.038H43.0399H43.0418H43.0438H43.0457H43.0476H43.0495H43.0514H43.0533H43.0552H43.0571H43.059H43.0609H43.0627H43.0646H43.0665H43.0684H43.0703H43.0722H43.074H43.0759H43.0778H43.0797H43.0815H43.0834H43.0853H43.0871H43.089H43.0908H43.0927H43.0946H43.0964H43.0983H43.1001H43.1019H43.1038H43.1056H43.1074H43.1093H43.1111H43.1129H43.1148H43.1166H43.1184H43.1202H43.122H43.1238H43.1256H43.1274H43.1292H43.131H43.1328H43.1346H43.1364H43.1382H43.1399H43.1417H43.1435H43.1453H43.147H43.1488H43.1505H43.1523H43.1541H43.1558H43.1575H43.1593H43.161H43.1628H43.1645H43.1662H43.1679H43.1696H43.1714H43.1731H43.1748H43.1765H43.1782H43.1799H43.1815H43.1832H43.1849H43.1866H43.1883H43.1899H43.1916H43.1932H43.1949H43.1965H43.1982H43.1998H43.2015H43.2031H43.2047H43.2063H43.208H43.2096H43.2112H43.2128H43.2144H43.216H43.2176H43.2191H43.2207H43.2223H43.2239H43.2254H43.227H43.2285H43.2301H43.2316H43.2332H43.2347H43.2362H43.2377H43.2393H43.2408H43.2423H43.2438H43.2453H43.2468H43.2482H43.2497H43.2512H43.2527H43.2541H43.2556H43.257H43.2585H43.2599H43.2613H43.2628H43.2642H43.2656H43.267H43.2684H43.2698H43.2712H43.2726H43.2739H43.2753H43.2767H43.278H43.2794H43.2807H43.2821H43.2834H43.2847H43.2861H43.2874H43.2887H43.29H43.2913H43.2926H43.2938H43.2951H43.2964H43.2976H43.2989H43.3001H43.3014H43.3026H43.3038H43.3051H43.3063H43.3075H43.3087H43.3099H43.3111H43.3122H43.3134H43.3146H43.3157H43.3169H43.318H43.3191H43.3203H43.3214H43.3225H43.3236H43.3243H43.3247L110.351 57.988C110.351 57.9882 110.352 57.9884 110.353 57.9886C111.139 58.2118 111.745 58.6386 112.036 59.2158L112.04 59.2226L112.043 59.2293C112.796 60.6148 112.355 62.2774 111 63.0006L111 63.0004L110.988 63.007L92.2814 73.64L91.7084 73.9657L92.1765 74.4298L107.391 89.5139C108.441 90.5547 108.441 92.3376 107.391 93.3784L94.1719 106.484C93.1197 107.527 91.3138 107.527 90.2616 106.484L75.1713 91.5238ZM47.3895 46.2679L46.5389 46.0356L46.7763 46.8849L61.7418 100.421L62.0565 101.547L62.6532 100.542L71.7573 85.2103L71.766 85.1956L71.7738 85.1802C71.8574 85.0143 71.9259 84.9421 72.1782 84.6919C73.2304 83.6488 75.0363 83.6488 76.0885 84.6919L91.8023 100.271L92.1544 100.62L92.5064 100.271L101.112 91.7394L101.47 91.3843L101.112 91.0292L85.2005 75.255C85.1229 75.12 85.0286 74.9954 84.9565 74.9002L84.9456 74.8858C84.8452 74.753 84.7819 74.6668 84.7439 74.5914L84.7405 74.5846L84.7368 74.5779C83.9843 73.1924 84.4253 71.5298 85.7801 70.8066L85.7863 70.8033L85.7925 70.7997L101.382 61.8976L102.43 61.2991L101.265 60.9811L47.3895 46.2679ZM4.10723 53.185H4.60723V53.0614H22.3153C23.777 53.0614 25.0578 54.313 25.0578 55.8996C25.0578 57.363 23.9014 58.6143 22.3153 58.6143H4.10723C2.48338 58.6143 1.23999 57.4497 1.23999 55.8996C1.23999 54.461 2.49623 53.185 4.10723 53.185ZM53.744 3.84721C53.744 2.38385 54.9005 1.13257 56.4865 1.13257C58.0975 1.13257 59.3538 2.40856 59.3538 3.84721V21.8986C59.3538 23.3373 58.0975 24.6133 56.4865 24.6133C54.9999 24.6133 53.744 23.4606 53.744 21.8986V3.84721ZM17.5138 14.4864C18.2299 14.5037 18.9507 14.8161 19.469 15.3299L32.3144 28.0648C33.3642 29.1056 33.3642 30.8885 32.3144 31.9293C31.2622 32.9725 29.4563 32.9725 28.4041 31.9293L15.5587 19.1944C14.5089 18.1536 14.5089 16.3707 15.5587 15.3299C16.077 14.8161 16.7978 14.5037 17.5138 14.4864Z" fill="white" stroke="#1B9AFF"/>
</g>
<defs>
<clipPath id="clip0_3_402">
<rect width="112.241" height="111.282" fill="white" transform="translate(0.73999 0.632568)"/>
</clipPath>
</defs>
</svg>