<svg width="113" height="112" viewBox="0 0 113 112" fill="none" xmlns="http://www.w3.org/2000/svg">
<path id="Vector" d="M44.7989 0.12793H8.82183C4.30224 0.12793 0.620728 3.77798 0.620728 8.25893V43.9285C0.620728 48.4095 4.30224 52.0595 8.82183 52.0595H44.7989C49.3185 52.0595 53 48.4095 53 43.9285V8.25893C53 3.77798 49.3185 0.12793 44.7989 0.12793ZM48.5104 43.9285C48.5104 45.9612 46.8492 47.6082 44.7989 47.6082H8.82183C6.77156 47.6082 5.11038 45.9612 5.11038 43.9285V8.25893C5.11038 6.22618 6.77156 4.57921 8.82183 4.57921H44.7989C46.8492 4.57921 48.5104 6.22618 48.5104 8.25893V43.9285ZM104.661 0.12793H68.6839C64.1643 0.12793 60.4828 3.77798 60.4828 8.25893V43.9285C60.4828 48.4095 64.1643 52.0595 68.6839 52.0595H104.661C109.181 52.0595 112.862 48.4095 112.862 43.9285V8.25893C112.862 3.77798 109.181 0.12793 104.661 0.12793ZM108.372 43.9285C108.372 45.9612 106.711 47.6082 104.661 47.6082H68.6839C66.6336 47.6082 64.9725 45.9612 64.9725 43.9285V8.25893C64.9725 6.22618 66.6336 4.57921 68.6839 4.57921H104.661C106.711 4.57921 108.372 6.22618 108.372 8.25893V43.9285ZM44.7989 59.4783H8.82183C4.30224 59.4783 0.620728 63.1283 0.620728 67.6093V103.279C0.620728 107.76 4.30224 111.41 8.82183 111.41H44.7989C49.3185 111.41 53 107.76 53 103.279V67.6093C53 63.1283 49.3185 59.4783 44.7989 59.4783ZM48.5104 103.279C48.5104 105.312 46.8492 106.959 44.7989 106.959H8.82183C6.77156 106.959 5.11038 105.312 5.11038 103.279V67.6093C5.11038 65.5765 6.77156 63.9296 8.82183 63.9296H44.7989C46.8492 63.9296 48.5104 65.5765 48.5104 67.6093V103.279ZM104.661 59.4783H68.6839C64.1643 59.4783 60.4828 63.1283 60.4828 67.6093V103.279C60.4828 107.76 64.1643 111.41 68.6839 111.41H104.661C109.181 111.41 112.862 107.76 112.862 103.279V67.6093C112.862 63.1283 109.181 59.4783 104.661 59.4783ZM108.372 103.279C108.372 105.312 106.711 106.959 104.661 106.959H68.6839C66.6336 106.959 64.9725 105.312 64.9725 103.279V67.6093C64.9725 65.5765 66.6336 63.9296 68.6839 63.9296H104.661C106.711 63.9296 108.372 65.5765 108.372 67.6093V103.279ZM38.0345 26.0937C38.0345 27.3252 37.0318 28.3194 35.7897 28.3194H29.0552V34.9963C29.0552 36.2278 28.0525 37.2219 26.8104 37.2219C25.5682 37.2219 24.5656 36.2278 24.5656 34.9963V28.3194H17.8311C16.5889 28.3194 15.5862 27.3252 15.5862 26.0937C15.5862 24.8622 16.5889 23.8681 17.8311 23.8681H24.5656V17.1912C24.5656 15.9596 25.5682 14.9655 26.8104 14.9655C28.0525 14.9655 29.0552 15.9596 29.0552 17.1912V23.8681H35.7897C37.0318 23.8681 38.0345 24.8622 38.0345 26.0937ZM97.8966 26.0937C97.8966 27.3252 96.8939 28.3194 95.6518 28.3194H77.6931C76.451 28.3194 75.4483 27.3252 75.4483 26.0937C75.4483 24.8622 76.451 23.8681 77.6931 23.8681H95.6518C96.8939 23.8681 97.8966 24.8622 97.8966 26.0937ZM97.8966 85.4441C97.8966 86.6756 96.8939 87.6697 95.6518 87.6697H77.6931C76.451 87.6697 75.4483 86.6756 75.4483 85.4441C75.4483 84.2126 76.451 83.2184 77.6931 83.2184H95.6518C96.8939 83.2184 97.8966 84.2126 97.8966 85.4441ZM34.7421 90.1624C35.6251 91.0378 35.6251 92.4474 34.7421 93.308C34.3081 93.7383 33.7245 93.9609 33.1558 93.9609C32.5871 93.9609 32.0034 93.7383 31.5694 93.308L26.8104 88.5896L22.0513 93.308C21.6173 93.7383 21.0337 93.9609 20.465 93.9609C19.8963 93.9609 19.3127 93.7383 18.8787 93.308C17.9957 92.4326 17.9957 91.023 18.8787 90.1624L23.6377 85.4441L18.8787 80.7257C17.9957 79.8503 17.9957 78.4407 18.8787 77.5802C19.7616 76.7047 21.1833 76.7047 22.0513 77.5802L26.8104 82.2985L31.5694 77.5802C32.4524 76.7047 33.8741 76.7047 34.7421 77.5802C35.6251 78.4556 35.6251 79.8651 34.7421 80.7257L29.9831 85.4441L34.7421 90.1624ZM84.4276 76.5712C84.4276 75.3397 85.4603 74.3159 86.7024 74.3159C87.9445 74.3159 88.9771 75.3397 88.9771 76.5712C88.9771 77.8027 87.9445 78.8265 86.7024 78.8265C85.4603 78.8265 84.4276 77.7879 84.4276 76.5712ZM88.9622 94.3763C88.9622 95.6078 87.9296 96.6316 86.6874 96.6316C85.4453 96.6316 84.4127 95.6078 84.4127 94.3763C84.4127 93.1448 85.4453 92.121 86.6874 92.121C87.9296 92.121 88.9622 93.1448 88.9622 94.3763Z" fill="white"/>
</svg>
