<svg width="113" height="112" viewBox="0 0 113 112" fill="none" xmlns="http://www.w3.org/2000/svg">
<path id="Vector" d="M33.1088 10.9901L33.0886 10.9943C32.2815 8.93686 33.2706 6.58643 35.3313 5.74513C37.4514 4.87963 39.8777 5.88183 40.7309 7.93634C41.5887 10.0017 40.6147 12.35 38.5187 13.2056L38.513 13.208C38.0719 13.3902 37.4937 13.4838 36.897 13.4838C35.2547 13.4838 33.7706 12.5074 33.1088 10.9901ZM23.3821 23.2107L23.3677 23.225L23.3537 23.2396C22.638 23.9886 21.5853 24.4373 20.5371 24.445C19.4333 24.4373 18.3639 23.9866 17.5813 23.2107C15.9844 21.6275 15.9844 19.0789 17.5813 17.4957C19.1853 15.9054 21.7781 15.9054 23.3821 17.4957C24.9789 19.0789 24.9789 21.6275 23.3821 23.2107ZM9.56622 40.6367C9.21298 40.6367 8.88021 40.6038 8.57222 40.5362L8.00057 40.3028C5.90461 39.4471 4.93064 37.0988 5.78839 35.0335C6.64166 32.979 9.06792 31.9768 11.188 32.8423C13.27 33.6923 14.2581 36.0826 13.4052 38.155C12.7473 39.65 11.2211 40.6367 9.56622 40.6367ZM8.52716 52.817C8.55905 52.8365 8.59358 52.8583 8.62889 52.8811L8.90908 53.3326L8.94926 53.3973L8.9958 53.4576C9.56371 54.194 9.86208 54.9928 9.86208 55.7687C9.86208 81.2026 30.637 101.782 56.2586 101.782C81.8802 101.782 102.655 81.2026 102.655 55.7687C102.655 30.4521 82.0713 9.94573 56.6127 9.7572L55.8024 9.35555L55.4876 9.19948H55.1362H54.2208L53.9418 9.05057L53.2908 8.5342C53.2235 8.4535 53.1494 8.32512 52.9961 8.02097L52.949 7.92759L52.8894 7.84165C52.4093 7.14937 52.1466 6.3847 52.1466 5.69179V5.62613L52.1408 5.56073C52.0597 4.63557 52.3012 3.79509 52.8369 3.11224L52.9566 2.95962L53.0336 2.78158C53.1605 2.48808 53.2344 2.36273 53.2924 2.29171L53.924 1.79078L54.2529 1.62769H55.1362H55.1372H55.1382H55.1392H55.1402H55.1412H55.1422H55.1432H55.1443H55.1453H55.1463H55.1474H55.1484H55.1495H55.1505H55.1516H55.1526H55.1537H55.1548H55.1559H55.1569H55.158H55.1591H55.1602H55.1613H55.1624H55.1635H55.1646H55.1658H55.1669H55.168H55.1691H55.1703H55.1714H55.1726H55.1737H55.1748H55.176H55.1772H55.1783H55.1795H55.1807H55.1818H55.183H55.1842H55.1854H55.1866H55.1878H55.189H55.1902H55.1914H55.1926H55.1938H55.195H55.1963H55.1975H55.1987H55.1999H55.2012H55.2024H55.2037H55.2049H55.2062H55.2074H55.2087H55.2099H55.2112H55.2125H55.2137H55.215H55.2163H55.2176H55.2188H55.2201H55.2214H55.2227H55.224H55.2253H55.2266H55.2279H55.2292H55.2305H55.2318H55.2332H55.2345H55.2358H55.2371H55.2385H55.2398H55.2411H55.2425H55.2438H55.2451H55.2465H55.2478H55.2492H55.2505H55.2519H55.2532H55.2546H55.256H55.2573H55.2587H55.2601H55.2614H55.2628H55.2642H55.2656H55.2669H55.2683H55.2697H55.2711H55.2725H55.2739H55.2753H55.2766H55.278H55.2794H55.2808H55.2822H55.2836H55.285H55.2865H55.2879H55.2893H55.2907H55.2921H55.2935H55.2949H55.2964H55.2978H55.2992H55.3006H55.302H55.3035H55.3049H55.3063H55.3078H55.3092H55.3106H55.3121H55.3135H55.3149H55.3164H55.3178H55.3193H55.3207H55.3221H55.3236H55.325H55.3265H55.3279H55.3294H55.3308H55.3323H55.3337H55.3352H55.3366H55.3381H55.3395H55.341H55.3424H55.3439H55.3454H55.3468H55.3483H55.3497H55.3512H55.3526H55.3541H55.3556H55.357H55.3585H55.36H55.3614H55.3629H55.3643H55.3658H55.3673H55.3687H55.3702H55.3717H55.3731H55.3746H55.3761H55.3775H55.379H55.3805H55.3819H55.3834H55.3848H55.3863H55.3878H55.3892H55.3907H55.3922H55.3936H55.3951H55.3966H55.398H55.3995H55.4009H55.4024H55.4039H55.4053H55.4068H55.4082H55.4097H55.4112H55.4126H55.4141H55.4155H55.417H55.4184H55.4199H55.4214H55.4228H55.4243H55.4257H55.4272H55.4286H55.4301H55.4315H55.433H55.4344H55.4358H55.4373H55.4387H55.4402H55.4416H55.4431H55.4445H55.4459H55.4474H55.4488H55.4502H55.4517H55.4531H55.4545H55.4559H55.4574H55.4588H55.4602H55.4616H55.4631H55.4645H55.4659H55.4673H55.4687H55.4701H55.4715H55.4729H55.4743H55.4758H55.4772H55.4786H55.48H55.4814H55.4827H55.4841H55.4855H55.4869H55.4883H55.4897H55.4911H55.4925H55.4938H55.4952H55.4966H55.498H55.4993H55.5007H55.5021H55.5034H55.5048H55.5061H55.5075H55.5088H55.5102H55.5115H55.5129H55.5142H55.5156H55.5169H55.5182H55.5196H55.5209H55.5222H55.5235H55.5249H55.5262H55.5275H55.5288H55.5301H55.5314H55.5327H55.534H55.5353H55.5366H55.5379H55.5392H55.5405H55.5418H55.543H55.5443H55.5456H55.5468H55.5481H55.5494H55.5506H55.5519H55.5531H55.5544H55.5556H55.5569H55.5581H55.5593H55.5606H55.5618H55.563H55.5642H55.5655H55.5667H55.5679H55.5691H55.5703H55.5715H55.5727H55.5739H55.5751H55.5762H55.5774H55.5786H55.5798H55.5809H55.5821H55.5832H55.5844H55.5855H55.5867H55.5878H55.589H55.5901H55.5912H55.5923H55.5935H55.5946H55.5957H55.5968H55.5979H55.599H55.6001H55.6012H55.6023H55.6033H55.6044H55.6055H55.6065H55.6076H55.6087H55.6097H55.6108H55.6118H55.6128H55.6139H55.6149H55.6159H55.6169H55.6179H55.6189H55.6199H55.6209H55.6219H55.6229H55.6239H55.6249H55.6258H55.6268H55.6278H55.6287H55.6297H55.6306H55.6315H55.6325H55.6334H55.6343H55.6353H55.6362H55.6371H55.638H55.6389H55.6397H55.6406H55.6415H55.6424H55.6432H55.6441H55.645H55.6458H55.6467H55.6475H55.6483H55.6491H55.65H55.6508H55.6516H55.6524H55.6532H55.654H55.6548H55.6555H55.6563H55.6571H55.6578H55.6586H55.6593H55.6601H55.6608H55.6615H55.6622H55.663H55.6637H55.6644H55.6651H55.6657H55.6664H55.6671H55.6678H55.6684H55.6691H55.6697H55.6704H55.671H55.6716H55.6723H55.6729H55.6735H55.6741H55.6747H55.6753H55.6758H55.6764H55.677H55.6775H55.6781H55.6786H55.6792H55.6797H55.6802H55.6807H55.6812H55.6817H55.6822H55.6827H55.6832H55.6837H55.6841H55.6846H55.685H55.6855H55.6859H55.6863H55.6868H55.6872H55.6876H55.688H55.6884H55.6887H55.6891H55.6895H55.6898H55.6902H55.6905H55.6909H55.6912H55.6915H55.6918H55.6921H55.6924H55.6927H55.693H55.6932H55.6935H55.6938H55.694H55.6942H55.6945H55.6947H55.6949H55.6951H55.6953H55.6955H55.6957H55.6958H55.696H55.6961H55.6963H55.6964H55.6966H55.6967H55.6968H55.6969H55.697H55.6971H55.6971H55.6972H55.6973H55.6973H55.6973H55.6974H55.6974H56.2586C86.421 1.62769 110.879 25.8954 110.879 55.7687C110.879 85.642 86.421 109.91 56.2586 109.91C26.0953 109.91 1.63794 85.6967 1.63794 55.7687C1.63794 55.2578 1.72504 54.7724 1.88415 54.4133C2.07797 54.0314 2.2355 53.772 2.4512 53.5225L2.52856 53.4331L2.59094 53.3326L2.87394 52.8766C2.9944 52.7997 3.14011 52.7124 3.31801 52.6066L3.38429 52.5671L3.44618 52.5211C4.12237 52.0183 4.92515 51.7129 5.71743 51.7048C6.66738 51.7538 7.50988 52.0528 8.16857 52.5906L8.29954 52.6975L8.45103 52.7726L8.45136 52.7728C8.45454 52.7745 8.47877 52.7875 8.52716 52.817ZM52.4807 57.2451L52.4419 57.1103L52.3787 56.9851C52.2537 56.7371 52.1797 56.549 52.1466 56.4119V56.4114V56.4095V56.4076V56.4057V56.4037V56.4018V56.3999V56.3979V56.396V56.394V56.3921V56.3901V56.3882V56.3862V56.3843V56.3823V56.3804V56.3784V56.3764V56.3745V56.3725V56.3705V56.3685V56.3666V56.3646V56.3626V56.3606V56.3587V56.3567V56.3547V56.3527V56.3507V56.3487V56.3467V56.3447V56.3427V56.3407V56.3387V56.3367V56.3347V56.3327V56.3307V56.3287V56.3267V56.3247V56.3227V56.3207V56.3187V56.3167V56.3146V56.3126V56.3106V56.3086V56.3066V56.3046V56.3025V56.3005V56.2985V56.2965V56.2945V56.2924V56.2904V56.2884V56.2864V56.2843V56.2823V56.2803V56.2783V56.2762V56.2742V56.2722V56.2701V56.2681V56.2661V56.264V56.262V56.26V56.258V56.2559V56.2539V56.2519V56.2498V56.2478V56.2458V56.2437V56.2417V56.2397V56.2376V56.2356V56.2336V56.2316V56.2295V56.2275V56.2255V56.2234V56.2214V56.2194V56.2173V56.2153V56.2133V56.2113V56.2092V56.2072V56.2052V56.2032V56.2011V56.1991V56.1971V56.1951V56.1931V56.191V56.189V56.187V56.185V56.183V56.181V56.179V56.1769V56.1749V56.1729V56.1709V56.1689V56.1669V56.1649V56.1629V56.1609V56.1589V56.1569V56.1549V56.1529V56.1509V56.1489V56.1469V56.1449V56.1429V56.141V56.139V56.137V56.135V56.133V56.1311V56.1291V56.1271V56.1251V56.1232V56.1212V56.1192V56.1173V56.1153V56.1133V56.1114V56.1094V56.1075V56.1055V56.1036V56.1016V56.0997V56.0978V56.0958V56.0939V56.092V56.09V56.0881V56.0862V56.0842V56.0823V56.0804V56.0785V56.0766V56.0747V56.0728V56.0709V56.069V56.0671V56.0652V56.0633V56.0614V56.0595V56.0576V56.0557V56.0539V56.052V56.0501V56.0483V56.0464V56.0445V56.0427V56.0408V56.039V56.0371V56.0353V56.0334V56.0316V56.0298V56.028V56.0261V56.0243V56.0225V56.0207V56.0189V56.0171V56.0153V56.0135V56.0117V56.0099V56.0081V56.0063V56.0045V56.0027V56.001V55.9992V55.9974V55.9957V55.9939V55.9922V55.9904V55.9887V55.987V55.9852V55.9835V55.9818V55.9801V55.9783V55.9766V55.9749V55.9732V55.9715V55.9698V55.9682V55.9665V55.9648V55.9631V55.9614V55.9598V55.9581V55.9565V55.9548V55.9532V55.9515V55.9499V55.9483V55.9467V55.945V55.9434V55.9418V55.9402V55.9386V55.937V55.9354V55.9339V55.9323V55.9307V55.9292V55.9276V55.926V55.9245V55.923V55.9214V55.9199V55.9184V55.9168V55.9153V55.9138V55.9123V55.9108V55.9093V55.9079V55.9064V55.9049V55.9034V55.902V55.9005V55.8991V55.8976V55.8962V55.8948V55.8933V55.8919V55.8905V55.8891V55.8877V55.8863V55.8849V55.8836V55.8822V55.8808V55.8795V55.8781V55.8768V55.8754V55.8741V55.8728V55.8714V55.8701V55.8688V55.8675V55.8662V55.865V55.8637V55.8624V55.8611V55.8599V55.8586V55.8574V55.8562V55.8549V55.8537V55.8525V55.8513V55.8501V55.8489V55.8477V55.8465V55.8454V55.8442V55.8431V55.8419V55.8408V55.8396V55.8385V55.8374V55.8363V55.8352V55.8341V55.833V55.8319V55.8309V55.8298V55.8288V55.8277V55.8267V55.8257V55.8246V55.8236V55.8226V55.8216V55.8206V55.8196V55.8187V55.8177V55.8168V55.8158V55.8149V55.8139V55.813V55.8121V55.8112V55.8103V55.8094V55.8085V55.8077V55.8068V55.806V55.8051V55.8043V55.8034V55.8026V55.8018V55.801V55.8002V55.7994V55.7987V55.7979V55.7971V55.7964V55.7957V55.7949V55.7942V55.7935V55.7928V55.7921V55.7914V55.7908V55.7901V55.7895V55.7888V55.7882V55.7875V55.7869V55.7863V55.7857V55.7851V55.7846V55.784V55.7834V55.7829V55.7824V55.7818V55.7813V55.7808V55.7803V55.7798V55.7793V55.7789V55.7784V55.778V55.7775V55.7771V55.7767V55.7763V55.7759V55.7755V55.7751V55.7748V55.7744V55.7741V55.7737V55.7734V55.7731V55.7728V55.7725V55.7722V55.7719V55.7717V55.7714V55.7712V55.771V55.7707V55.7705V55.7703V55.7702V55.77V55.7698V55.7697V55.7695V55.7694V55.7693V55.7692V55.7691V55.769V55.7689V55.7688V55.7688V55.7688V55.7687V27.9482C52.1466 25.7285 53.9883 23.8841 56.2586 23.8841C58.529 23.8841 60.3707 25.7285 60.3707 27.9482V53.7656V54.3165L60.7272 54.7364L73.851 70.1947C75.3026 71.9724 75.0636 74.514 73.3314 75.9119L73.3246 75.9173L73.318 75.9229C72.5858 76.5277 71.6358 76.859 70.6816 76.859C69.4955 76.859 68.338 76.3295 67.5537 75.4333L53.1143 58.3985C53.0682 58.3332 53.0562 58.2986 53.0549 58.2944L52.9746 57.9762L52.768 57.7201C52.5937 57.5041 52.512 57.3537 52.4807 57.2451Z" fill="white" stroke="#F84B56" stroke-width="3"/>
</svg>