<svg xmlns="http://www.w3.org/2000/svg" width="53" height="59" viewBox="0 0 53 59" fill="none">
  <path d="M0.786377 0.941528H52.2923V28.637C51.9915 32.5576 50.6523 36.2897 48.71 39.6995C46.6272 43.3559 43.8509 46.6415 40.9178 49.3911C35.146 54.8019 28.7671 58.137 25.8709 58.137C22.4812 58.137 16.7608 54.847 11.638 49.857C8.64838 46.9448 5.86231 43.4536 3.86184 39.6995C1.97446 36.1576 0.786377 32.3816 0.786377 28.637V0.941528Z" fill="#163C97"/>
  <path d="M26.7101 18.5549L3.61724 39.3728C5.60251 43.1036 8.27792 46.6126 11.2448 49.5067L26.7101 34.3048L41.0475 49.2713C43.0134 47.6451 46.7879 43.2301 48.7537 39.621L26.7101 18.5549Z" fill="#B50000"/>
  <path fill-rule="evenodd" clip-rule="evenodd" d="M28.5587 25.7333C30.0716 15.5328 31.6634 4.80099 35.8187 11.2913C54.9884 9.78169 49.6352 27.1693 41.8596 24.0991C55.2972 33.5625 43.8857 47.8762 31.9404 37.2431C30.2285 39.5261 26.4321 38.3973 27.4746 32.597C27.853 30.4913 28.2037 28.1269 28.5587 25.7333ZM39.9854 15.1634C34.9302 13.3186 33.191 19.4238 36.0049 20.2543C38.8188 21.0848 47.1481 17.7772 39.9854 15.1634ZM34.9924 27.2347C32.4189 28.095 34.5911 35.9807 41.9675 33.3738C47.3175 31.4831 39.3682 25.7721 34.9924 27.2347Z" fill="white"/>
  <path d="M35.8187 11.2913L35.3977 11.5606L35.5594 11.8132L35.8583 11.7897L35.8187 11.2913ZM28.5587 25.7333L28.0641 25.6596L28.5587 25.7333ZM41.8596 24.0991L42.043 23.6341L41.5719 24.5078L41.8596 24.0991ZM31.9404 37.2431L32.2728 36.8697L31.8664 36.508L31.5403 36.943L31.9404 37.2431ZM27.4746 32.597L27.9667 32.6857L27.4746 32.597ZM39.9854 15.1634L40.1565 14.6937L39.9854 15.1634ZM34.9924 27.2347L35.1512 27.7089L34.9924 27.2347ZM41.9675 33.3738L42.1344 33.8452L41.9675 33.3738ZM36.2398 11.0219C35.7052 10.187 35.1833 9.58149 34.6604 9.21914C34.1225 8.84641 33.5504 8.71242 32.9854 8.90105C32.4523 9.07903 32.0255 9.51309 31.6765 10.0443C31.3224 10.5833 31.0092 11.2818 30.7261 12.0871C29.5997 15.2904 28.8171 20.5824 28.0641 25.6596L29.0533 25.8069C29.8132 20.6837 30.5829 15.5096 31.6695 12.4193C31.9396 11.6513 32.221 11.0373 32.5124 10.5938C32.8088 10.1426 33.0786 9.92436 33.3027 9.84955C33.4949 9.78539 33.7407 9.7981 34.0912 10.0409C34.4565 10.2941 34.8934 10.773 35.3977 11.5606L36.2398 11.0219ZM41.6762 24.5641C43.8161 25.409 45.8067 24.8397 47.2278 23.5513C48.6339 22.2765 49.4897 20.2975 49.4435 18.2694C49.3969 16.2227 48.4316 14.133 46.2188 12.6704C44.0207 11.2174 40.6361 10.4104 35.7792 10.7928L35.8583 11.7897C40.5862 11.4174 43.721 12.2177 45.6677 13.5044C47.5996 14.7814 48.4044 16.5637 48.4437 18.2915C48.4835 20.0378 47.7412 21.7357 46.5558 22.8104C45.3853 23.8715 43.7909 24.3243 42.043 23.6341L41.6762 24.5641ZM31.6081 37.6164C34.6649 40.3374 37.7314 41.5001 40.4186 41.5059C43.1072 41.5118 45.382 40.3569 46.8136 38.5141C48.2453 36.6712 48.8125 34.1674 48.1433 31.5183C47.4746 28.871 45.5815 26.1088 42.1474 23.6904L41.5719 24.5078C44.8565 26.821 46.5761 29.3968 47.1737 31.7626C47.7709 34.1267 47.2582 36.3112 46.0236 37.9004C44.7889 39.4898 42.8109 40.5112 40.4201 40.506C38.0281 40.5008 35.1886 39.4653 32.2728 36.8697L31.6081 37.6164ZM26.9824 32.5083C26.4469 35.4881 27.1193 37.4741 28.3883 38.361C29.6814 39.2648 31.3532 38.8599 32.3406 37.5432L31.5403 36.943C30.8157 37.9093 29.7334 38.0815 28.9609 37.5416C28.1643 36.9848 27.4598 35.5063 27.9667 32.6857L26.9824 32.5083ZM28.0641 25.6596C27.7088 28.0552 27.3592 30.4115 26.9824 32.5083L27.9667 32.6857C28.3468 30.571 28.6986 28.1987 29.0533 25.8069L28.0641 25.6596ZM40.1565 14.6937C38.797 14.1976 37.613 14.221 36.652 14.5984C35.6957 14.9739 35.0053 15.6825 34.5989 16.4779C34.1954 17.2677 34.0578 18.1713 34.2418 18.9621C34.4293 19.7677 34.9595 20.467 35.8636 20.7338L36.1461 19.7748C35.6433 19.6264 35.3357 19.251 35.2158 18.736C35.0925 18.2061 35.178 17.543 35.4895 16.9333C35.7981 16.3292 36.3144 15.8055 37.0181 15.5292C37.7171 15.2547 38.6462 15.2068 39.8142 15.633L40.1565 14.6937ZM35.8636 20.7338C36.6872 20.9769 37.834 20.9058 38.9289 20.6651C40.0359 20.4216 41.1816 19.9844 42.0184 19.4135C42.8132 18.8712 43.5386 18.0501 43.2631 17.0463C43.1322 16.5693 42.7898 16.1443 42.286 15.7667C41.7805 15.3878 41.0779 15.0299 40.1565 14.6937L39.8142 15.633C40.6835 15.9503 41.2875 16.2676 41.6865 16.5666C42.0871 16.8669 42.2472 17.1227 42.2987 17.3104C42.388 17.6359 42.1982 18.0799 41.4543 18.5874C40.7524 19.0663 39.7358 19.4636 38.7135 19.6885C37.679 19.9159 36.7295 19.9469 36.1461 19.7748L35.8636 20.7338ZM34.8336 26.7606C33.9133 27.0682 33.5083 27.9754 33.4599 28.897C33.4108 29.8334 33.7067 30.9218 34.33 31.8774C34.9575 32.8396 35.9296 33.6863 37.251 34.1113C38.574 34.5367 40.2065 34.5266 42.1344 33.8452L41.8006 32.9024C40.0403 33.5245 38.6351 33.5062 37.5567 33.1594C36.4766 32.8121 35.6834 32.1224 35.1675 31.3315C34.6473 30.534 34.4217 29.6526 34.4586 28.95C34.4962 28.2326 34.7847 27.8314 35.1512 27.7089L34.8336 26.7606ZM42.1344 33.8452C42.8528 33.5913 43.4011 33.2555 43.7633 32.8324C44.1356 32.3974 44.2896 31.8939 44.2485 31.3723C44.1703 30.3793 43.4 29.4192 42.4379 28.6553C41.4511 27.8717 40.1541 27.2063 38.8158 26.8297C37.4832 26.4548 36.0562 26.3519 34.8336 26.7606L35.1512 27.7089C36.1166 27.3863 37.3241 27.4487 38.5455 27.7923C39.7612 28.1343 40.9376 28.7405 41.8163 29.4382C42.7198 30.1556 43.2072 30.8863 43.2515 31.4502C43.2718 31.707 43.2032 31.9485 43.0033 32.1819C42.7933 32.4273 42.4197 32.6836 41.8006 32.9024L42.1344 33.8452Z" fill="white"/>
  <path d="M3.93083 7.37503C6.05484 4.00373 17.4081 7.91976 22.8041 10.0426C25.1278 10.9675 29.6307 13.6922 26.0281 16.7115C22.0964 20.0067 22.8828 33.6583 20.3664 36.1689C17.8501 38.6795 15.4947 35.428 14.6261 33.9721C15.6213 32.0921 17.452 27.9066 16.9065 25.7341C16.4534 23.9296 8.96436 23.7726 5.97622 23.7726C5.50441 22.7527 5.54122 19.5124 6.6053 17.3391C7.66938 15.1658 14.0756 19.1437 16.6706 21.5758C17.6142 21.5758 19.0153 21.002 19.5801 14.4362C18.8724 11.2979 9.297 12.7903 3.69578 14.3577C2.83082 13.3378 2.20427 10.1155 3.93083 7.37503Z" fill="white"/>
</svg>