<svg width="132" height="132" viewBox="0 0 132 132" fill="none" xmlns="http://www.w3.org/2000/svg">
<circle cx="66" cy="66" r="66" fill="#C00011"/>
<path d="M66 0C48.4921 0 31.708 6.95278 19.333 19.333C6.9522 31.7082 0 48.4935 0 66C0 83.5065 6.95278 100.292 19.333 112.667C31.7082 125.048 48.4935 132 66 132C83.5065 132 100.292 125.047 112.667 112.667C125.048 100.292 132 83.5065 132 66C132 48.4935 125.047 31.708 112.667 19.333C100.292 6.9522 83.5065 0 66 0ZM66 127.45C49.7039 127.45 34.075 120.975 22.5477 109.454C11.0259 97.9264 4.55178 82.2961 4.55178 66.0015C4.55178 49.7068 11.0267 34.0764 22.5477 22.5491C34.0751 11.0274 49.7054 4.55323 66 4.55323C82.2946 4.55323 97.9251 11.0281 109.452 22.5491C120.974 34.0766 127.448 49.7068 127.448 66.0015C127.448 82.2961 120.973 97.9265 109.452 109.454C97.9249 120.976 82.2946 127.45 66 127.45ZM66 11.3787C51.514 11.3787 37.6202 17.131 27.3777 27.3776C17.1304 37.6191 11.3787 51.513 11.3787 66C11.3787 80.487 17.131 94.3798 27.3777 104.622C37.6191 114.87 51.513 120.621 66 120.621C80.487 120.621 94.3798 114.869 104.622 104.622C114.87 94.3809 120.621 80.487 120.621 66C120.621 51.513 114.869 37.6202 104.622 27.3776C94.3809 17.1304 80.487 11.3787 66 11.3787ZM66 116.07C52.7202 116.07 39.9872 110.795 30.5923 101.408C21.2043 92.014 15.9305 79.281 15.9305 66C15.9305 52.719 21.2049 39.9872 30.5923 30.5923C39.986 21.2043 52.719 15.9305 66 15.9305C79.281 15.9305 92.0128 21.2049 101.408 30.5923C110.796 39.986 116.07 52.719 116.07 66C116.07 79.281 110.795 92.0129 101.408 101.408C92.014 110.796 79.281 116.07 66 116.07Z" fill="#5E0103"/>
<path d="M46.0535 50.7345C47.4125 47.4536 50.6131 45.32 54.157 45.32C59.0015 45.32 62.9255 49.244 62.9255 54.0885C62.9255 57.6324 60.7919 60.8329 57.511 62.192C54.2374 63.5439 50.467 62.7985 47.9533 60.2922C45.447 57.7785 44.7017 54.0081 46.0535 50.7345Z" fill="#5E0103"/>
<path d="M69.4362 50.7345C70.7952 47.4536 73.9958 45.32 77.5397 45.32C82.3842 45.32 86.3082 49.244 86.3082 54.0885C86.3082 57.6324 84.1746 60.8329 80.8937 62.192C77.6201 63.5439 73.8497 62.7985 71.336 60.2922C68.8297 57.7785 68.0844 54.0081 69.4362 50.7345Z" fill="#5E0103"/>
<path d="M46.0535 74.1172C47.4125 70.8363 50.6131 68.7027 54.157 68.7027C59.0015 68.7027 62.9255 72.6267 62.9255 77.4712C62.9255 81.0151 60.7919 84.2156 57.511 85.5747C54.2374 86.9266 50.467 86.1812 47.9533 83.6749C45.447 81.1612 44.7017 77.3908 46.0535 74.1172Z" fill="#5E0103"/>
<path d="M69.4362 74.1172C70.7952 70.8363 73.9958 68.7027 77.5397 68.7027C82.3842 68.7027 86.3082 72.6267 86.3082 77.4712C86.3082 81.0151 84.1746 84.2156 80.8937 85.5747C77.6201 86.9266 73.8497 86.1812 71.336 83.6749C68.8297 81.1612 68.0844 77.3908 69.4362 74.1172Z" fill="#5E0103"/>
</svg>
